M48
;Layer_Color=9474304
;FILE_FORMAT=2:5
INCH
;TYPE=PLATED
T1F00S00C0.00600
T2F00S00C0.01000
T3F00S00C0.02362
T4F00S00C0.02500
T5F00S00C0.03150
T6F00S00C0.03543
T7F00S00C0.03937
T8F00S00C0.05512
T9F00S00C0.05906
T10F00S00C0.07874
T11F00S00C0.13386
%
T01
X0810600Y0874500
X0812500Y0876700
X0812900Y0879700
X0815300Y0878900
X0816600Y0881400
X0819300Y0882700
X0819100Y0879800
X0819700Y0876900
X0822200
X0823532Y0874457
X0819141Y0873950
X0821000Y0872000
X0828200Y0872400
X0827700Y0880400
X0824200
X0821700Y0880900
X0818700Y0885400
X0820600Y0887700
X0823700Y0888400
X0826500Y0888800
X0829600
X0830700Y0885100
X0827700Y0884900
X0830100Y0881900
X0830700Y0878900
X0832700Y0877400
X0834200Y0875400
X0832700Y0883100
X0834700Y0885400
Y0897400
X0832200
X0830200Y0895400
X0824250Y0895468
X0824200Y0891900
X0826800Y0892600
X0826000Y0897500
X0817300Y0897900
X0817000Y0894800
X0818700Y0890400
X0811200Y0890500
Y0886100
X0813700Y0886000
X0810100Y0880600
X0808339Y0878761
X0815476Y0874576
X0813700Y0872600
X0809300Y0895300
T02
X0225500Y0739500
X0262500Y0752500
X0317500Y0737500
X0392500Y0750000
X0442500Y0732500
X0495000Y0745000
X0614843Y0760000
X0665000Y0777500
X0707500Y0757500
X0716500Y0752500
X0715000Y0735000
X0707500Y0725000
X0716000Y0716000
X0740000Y0725000
X0760000Y0730000
X0759500Y0747500
X0756500Y0757500
X0749000Y0765500
X0767500Y0714000
X0735500Y0674000
X0821500Y0677000
X0817500Y0714500
X0799500Y0715500
X0784500Y0726000
X0799500Y0752500
X0791500Y0764500
X0833000
X0846500Y0757500
X0845500Y0747500
X0845000Y0735000
X0877500Y0725000
X0880500Y0712500
X0872000Y0709000
X0868500Y0706000
X0878000Y0699500
X0891500Y0701000
X0897500Y0680000
X0927500Y0706000
X0931000Y0734500
X0929000Y0747500
X0921000Y0754000
X0882500Y0752500
X0917500Y0857500
Y0897500
X0925000Y0925000
X0887500
X0740000Y0867500
X0717500Y0882500
X0715000Y0850000
X0630000Y0839500
X0629500Y0807500
X0672500Y0914000
X0668500Y0927500
X0605500Y0890500
X0562000Y0879500
X0551500Y0896500
X0527000Y0923000
X0512500Y0935000
X0502500Y0915000
X0515000Y0875500
X0597000Y0843000
X0611500Y0819500
X0571500Y0811500
X0445000Y0832500
X0430000Y0839000
X0422000Y0840500
X0428500Y0855500
X0410000Y0859000
X0351500Y0870000
X0345000Y0904500
X0360000Y0932500
X0357000Y0824000
X0224500Y0836000
X0228500Y0797500
X0280500Y0927000
X0311000Y0926500
X0286500Y1023000
X0230000Y1025000
X0232500Y0970000
X0342500Y1005000
X0451500Y1009000
X0463000Y0938500
X0427500Y0942000
X0512000Y1030500
X0579000Y1001000
X0607500Y0949500
X0635500Y1019500
X0702500Y1035000
X0718000Y1021500
X0721000Y1008500
X0727500Y1000000
X0762500Y1003000
X0757500Y1020000
X0760500Y1043000
X0755500Y1058500
X0754000Y1077500
X0731000Y1068000
X0725500Y1065000
X0733000Y1044000
X0795000Y1038000
X0798500Y1050500
Y1018500
X0804000Y1008500
X0808000Y0999500
X0847500Y1000000
X0839500Y1019500
X0847500Y1045000
X0840000Y1057000
X0864000Y1055000
X0866250Y1035000
X0879000Y1016500
X0880000Y1008500
X0891500Y1001000
X0933000
X0925500Y1018500
X0924000Y1057500
X0887500Y1074000
X0819500Y1083500
T03
X0665000Y0850000
X0675000Y0840000
Y0860000
X0562500Y0915000
X0552500Y0925000
X0542500Y0915000
X0230000Y0912500
X0220000Y0922500
X0230000Y0932500
X0237500Y0890000
X0227500Y0880000
X0217500Y0890000
T04
X0230000Y0717500
X0240000
X0300000
Y0777500
X0240000
X0230000
X0320000
Y0717500
T05
X0622500Y0772657
X0645157Y0750000
X0664843Y0750000
X0622500Y0792343
X0332500Y0802500
X0332500Y0822185
X0310000
X0310000Y0802500
X0287500
X0287500Y0822185
T06
X0250000Y0695000
X0260000
X0302500
X0312500
X0361000Y0709500
X0371000
X0381000
X0391000
X0401000
X0411000
X0421000
X0431000
X0441000
X0451000
X0461000
Y0678000
X0451000
X0441000
X0431000
X0421000
X0411000
X0401000
X0391000
X0381000
X0371000
X0361000
Y0769500
X0371000
X0381000
X0391000
X0401000
X0411000
X0421000
X0431000
X0441000
X0451000
X0461000
X0471000
X0481000
X0491000
X0501000
X0511000
X0521000
X0531000
X0541000
X0551000
X0561000
X0571000
X0581000
X0591000
Y0709500
X0581000
X0571000
X0561000
X0551000
X0541000
X0531000
X0521000
X0511000
X0501000
X0491000
X0481000
X0471000
Y0678000
X0481000
X0491000
X0501000
X0511000
X0521000
X0531000
X0541000
X0551000
X0561000
X0571000
X0581000
X0591000
X0941700Y0785400
Y0795400
X0931700
Y0785400
X0921700
X0911700
X0901700
X0891700
X0881700
X0871700
X0861700
X0851700
X0841700
X0831700
X0821700
X0811700
X0801700
X0791700
X0781700
Y0795400
X0791700
X0801700
X0811700
X0821700
X0831700
X0841700
X0851700
X0861700
X0871700
X0881700
X0891700
X0901700
X0911700
X0921700
X0771700
Y0785400
X0761700
X0751700
X0741700
X0731700
X0721700
X0711700
X0701700
Y0795400
X0711700
X0721700
X0731700
X0741700
X0751700
X0761700
X0591000Y0801000
X0581000
X0571000
X0561000
X0551000
X0541000
X0531000
X0521000
X0511000
X0501000
X0491000
X0481000
X0471000
Y0817000
X0481000
X0491000
X0501000
X0511000
Y0847000
X0501000
X0491000
X0481000
X0471000
X0471000Y0859500
X0481000
X0491000
X0501000
X0511000
Y0889500
X0501000
X0491000
X0481000
X0471000
X0461000
X0451000
X0441000
Y0859500
X0451000
X0461000
X0461000Y0847000
X0451000
X0441000
Y0817000
X0451000
X0461000
Y0801000
X0451000
X0441000
X0431000
X0421000
X0411000
X0401000
X0391000
X0381000
X0371000
X0361000
X0325000Y0845000
Y0855000
X0285000
Y0845000
X0295000Y0885000
X0305000
Y0907500
X0295000
X0275000
X0265000
Y0885000
X0275000
X0282500Y0972500
X0292500
X0307500
X0267500
X0257500
X0307657Y1042500
X0317500
Y0972500
X0367500
X0377500
X0392500
X0402500
X0417500
X0427500
X0430000Y1042500
X0420157
X0535157
X0545000
X0542500Y0972500
X0532500
X0517500
X0507500
X0492500
X0482500
X0597500
X0607500
X0622500
X0632500
X0647500
X0657500
X0701700Y0975400
X0711700
X0721700
X0731700
X0741700
X0751700
X0761700
X0771700
Y0985400
X0761700
X0751700
X0741700
X0731700
X0721700
X0711700
X0701700
X0660000Y1042500
X0650157
X0781700Y0985400
Y0975400
X0791700
X0801700
X0811700
Y0985400
X0801700
X0791700
X0821700
Y0975400
X0831700
X0841700
X0851700
X0861700
X0871700
X0881700
X0891700
X0901700
Y0985400
X0891700
X0881700
X0871700
X0861700
X0851700
X0841700
X0831700
X0911700
Y0975400
X0921700
X0931700
Y0985400
X0921700
X0941700
Y0975400
T07
X0247874Y0801752
X0255748
X0264409Y0816516
Y0826358
X0240000Y0825374
Y0817500
T08
X0675000Y0805000
X0655000Y0880000
X0682500Y0907500
Y0935000
X0602500Y0860000
X0552500Y0875000
X0441000Y0913000
X0407500Y0890000
X0390500Y0935500
X0350000Y0843000
X0300000Y0937500
X0496000Y0938000
X0589500Y0937500
T09
X0262500Y1021476
Y1082500
X0373500
Y1021476
X0487500
Y1082500
X0602500
Y1021476
T10
X0297421Y1062579
X0337579
X0409921
X0450079
X0524921
X0565079
X0639921
X0680079
T11
X0222500Y0682500
X0942500
X0222500Y1077500
X0942500
M30
