%FSAX25Y25*%
%MOIN*%
G70*
G01*
G75*
G04 Layer_Color=32768*
%ADD10C,0.01000*%
%ADD11C,0.01500*%
%ADD12C,0.00800*%
%ADD13C,0.00500*%
%ADD14R,0.05709X0.02362*%
%ADD15R,0.02362X0.05709*%
%ADD16R,0.03543X0.02756*%
%ADD17O,0.08661X0.02362*%
%ADD18R,0.05906X0.05906*%
%ADD19R,0.02756X0.03543*%
%ADD20O,0.06102X0.01378*%
%ADD21R,0.04803X0.01575*%
%ADD22R,0.06693X0.04331*%
%ADD23R,0.04331X0.06693*%
%ADD24R,0.05906X0.05906*%
%ADD25O,0.01378X0.06102*%
%ADD26O,0.02362X0.08661*%
%ADD27C,0.01969*%
%ADD28C,0.25590*%
%ADD29C,0.05906*%
%ADD30C,0.07874*%
%ADD31C,0.04331*%
%ADD32R,0.04331X0.04331*%
%ADD33R,0.04331X0.04331*%
%ADD34O,0.07874X0.17716*%
%ADD35O,0.07874X0.15748*%
%ADD36O,0.15748X0.07874*%
%ADD37C,0.05906*%
%ADD38O,0.05000X0.10000*%
%ADD39C,0.05315*%
%ADD40R,0.05315X0.05315*%
%ADD41R,0.05315X0.05315*%
%ADD42C,0.12992*%
%ADD43C,0.11811*%
%ADD44C,0.03000*%
%ADD45C,0.02000*%
%ADD46C,0.00984*%
%ADD47C,0.02362*%
%ADD48C,0.00787*%
%ADD49C,0.00098*%
%ADD50C,0.00100*%
%ADD51C,0.00098*%
%ADD52R,0.06496X0.03150*%
%ADD53R,0.03150X0.06496*%
%ADD54R,0.04331X0.03543*%
%ADD55O,0.09449X0.03150*%
%ADD56R,0.06693X0.06693*%
%ADD57R,0.03543X0.04331*%
%ADD58O,0.06890X0.02165*%
%ADD59R,0.05591X0.02362*%
%ADD60R,0.07480X0.05118*%
%ADD61R,0.05118X0.07480*%
%ADD62R,0.06693X0.06693*%
%ADD63O,0.02165X0.06890*%
%ADD64O,0.03150X0.09449*%
%ADD65C,0.02756*%
%ADD66C,0.29528*%
%ADD67C,0.06693*%
%ADD68C,0.08661*%
%ADD69C,0.05118*%
%ADD70R,0.05118X0.05118*%
%ADD71R,0.05118X0.05118*%
%ADD72O,0.08661X0.18504*%
%ADD73O,0.08661X0.16535*%
%ADD74O,0.16535X0.08661*%
%ADD75C,0.06693*%
%ADD76O,0.05787X0.10787*%
%ADD77C,0.06102*%
%ADD78R,0.06102X0.06102*%
%ADD79R,0.06102X0.06102*%
%ADD80C,0.13780*%
%ADD81C,0.12598*%
%ADD82C,0.03787*%
%ADD83C,0.02787*%
D10*
X0205000Y1095000D02*
X0960000D01*
Y0665000D02*
Y1095000D01*
X0205000Y0665000D02*
X0960000D01*
X0205000D02*
Y1095000D01*
X0960000D01*
Y0665000D02*
Y1095000D01*
X0205000Y0665000D02*
X0960000D01*
X0205000D02*
Y1095000D01*
D13*
X0262697Y0816500D02*
G03*
X0266100Y0816400I0001703J0000000D01*
G01*
X0266103Y0826400D02*
G03*
X0262700Y0826500I-0001703J0000000D01*
G01*
X0247900Y0803509D02*
G03*
X0247800Y0800094I0000000J-0001709D01*
G01*
X0255800Y0800091D02*
G03*
X0255900Y0803506I0000000J0001709D01*
G01*
X0238291Y0817500D02*
G03*
X0241706Y0817400I0001709J0000000D01*
G01*
X0241709Y0825400D02*
G03*
X0238294Y0825500I-0001709J0000000D01*
G01*
X0266100Y0816200D02*
Y0826500D01*
X0262700Y0816200D02*
Y0826500D01*
X0247800Y0800100D02*
X0256000D01*
X0247800Y0803500D02*
X0256000D01*
X0241700Y0817300D02*
Y0825500D01*
X0238300Y0817300D02*
Y0825500D01*
X0262697Y0816500D02*
G03*
X0266100Y0816400I0001703J0000000D01*
G01*
X0266103Y0826400D02*
G03*
X0262700Y0826500I-0001703J0000000D01*
G01*
X0247900Y0803509D02*
G03*
X0247800Y0800094I0000000J-0001709D01*
G01*
X0255800Y0800091D02*
G03*
X0255900Y0803506I0000000J0001709D01*
G01*
X0238291Y0817500D02*
G03*
X0241706Y0817400I0001709J0000000D01*
G01*
X0241709Y0825400D02*
G03*
X0238294Y0825500I-0001709J0000000D01*
G01*
X0266100Y0816200D02*
Y0826500D01*
X0262700Y0816200D02*
Y0826500D01*
X0247800Y0800100D02*
X0256000D01*
X0247800Y0803500D02*
X0256000D01*
X0241700Y0817300D02*
Y0825500D01*
X0238300Y0817300D02*
Y0825500D01*
M02*
